HIERARCHY
ROOT Hips
{
  OFFSET 3.13124 94.3669 -3.18751
  CHANNELS  6 Xposition Yposition Zposition Zrotation Xrotation Yrotation
  JOINT LeftUpLeg
  {
    OFFSET 8.64259 1.95398 -2.38835
    CHANNELS 3 Zrotation Xrotation Yrotation
    JOINT LeftLeg
    {
      OFFSET 43.7702 0 0
      CHANNELS 3 Zrotation Xrotation Yrotation
      JOINT LeftFoot
      {
        OFFSET 40.6238 0 0
        CHANNELS 3 Zrotation Xrotation Yrotation
        JOINT LeftToeBase
        {
          OFFSET 12.7242 0 0
          CHANNELS 3 Zrotation Xrotation Yrotation
          End Site
          {
            OFFSET 0 0 0
          }
        }
      }
    }
  }
  JOINT RightUpLeg
  {
    OFFSET -8.2249 1.95398 -2.59336
    CHANNELS 3 Zrotation Xrotation Yrotation
    JOINT RightLeg
    {
      OFFSET 43.5653 0 0
      CHANNELS 3 Zrotation Xrotation Yrotation
      JOINT RightFoot
      {
        OFFSET 40.6238 0 0
        CHANNELS 3 Zrotation Xrotation Yrotation
        JOINT RightToeBase
        {
          OFFSET 12.7242 0 0
          CHANNELS 3 Zrotation Xrotation Yrotation
          End Site
          {
            OFFSET 0 0 0
          }
        }
      }
    }
  }
  JOINT Spine
  {
    OFFSET 0.165834 0.87714 6.61349
    CHANNELS 3 Zrotation Xrotation Yrotation
    JOINT Spine1
    {
      OFFSET 7.38962 1.71661e-005 0
      CHANNELS 3 Zrotation Xrotation Yrotation
      JOINT Spine2
      {
        OFFSET 11.9445 1.14441e-005 0
        CHANNELS 3 Zrotation Xrotation Yrotation
        JOINT Spine3
        {
          OFFSET 14.7254 4.19617e-005 0
          CHANNELS 3 Zrotation Xrotation Yrotation
          JOINT Spine4
          {
            OFFSET 10.9679 0 0
            CHANNELS 3 Zrotation Xrotation Yrotation
            JOINT RightShoulder
            {
              OFFSET 2.46616 -1.6653 3.69651
              CHANNELS 3 Zrotation Xrotation Yrotation
              JOINT RightArm
              {
                OFFSET 13.0012 0 0
                CHANNELS 3 Zrotation Xrotation Yrotation
                JOINT RightForeArm
                {
                  OFFSET 28.7848 1.52588e-005 0
                  CHANNELS 3 Zrotation Xrotation Yrotation
                  JOINT RightHand
                  {
                    OFFSET 26.5688 1.52588e-005 0
                    CHANNELS 3 Zrotation Xrotation Yrotation
                    End Site
                    {
                      OFFSET 0 0 0
                    }
                  }
                }
              }
            }
            JOINT LeftShoulder
            {
              OFFSET 2.38034 -1.29275 -3.75231
              CHANNELS 3 Zrotation Xrotation Yrotation
              JOINT LeftArm
              {
                OFFSET 16.3182 6.10352e-005 0
                CHANNELS 3 Zrotation Xrotation Yrotation
                JOINT LeftForeArm
                {
                  OFFSET 27.0901 0 0
                  CHANNELS 3 Zrotation Xrotation Yrotation
                  JOINT LeftHand
                  {
                    OFFSET 24.5451 1.52588e-005 0
                    CHANNELS 3 Zrotation Xrotation Yrotation
                    End Site
                    {
                      OFFSET 0 0 0
                    }
                  }
                }
              }
            }
            JOINT Neck
            {
              OFFSET 5.0226 -0.0266342 0
              CHANNELS 3 Zrotation Xrotation Yrotation
              JOINT Head
              {
                OFFSET 6.69363 2.86102e-005 0
                CHANNELS 3 Zrotation Xrotation Yrotation
                End Site
                {
                  OFFSET 0 0 0
                }
              }
            }
          }
        }
      }
    }
  }
}
MOTION
Frames:	12
Frame Time:	0.0333333
11.6122 104.702 -28.0392 -166.397 -73.0509 -144.742 -174.186 -0.621666 112.752 -37.1201 4.70219 0.530464 29.9614 2.20041 0.924098 28.7808 3.98001e-006 3.31946e-006 177.52 52.2409 61.5509 -4.06205 9.94222 0.512007 -6.63972 -1.72566 -0.0694149 28.7808 1.61762e-005 1.91486e-005 -1.79895 8.51662 -91.9018 9.76588 -2.67818 -4.53928 -1.90972 -2.87423 -4.41734 -24.3878 -1.19549 -5.13248 -4.37516 -1.1955 -5.1325 92.0825 -50.6272 -97.505 16.2626 21.2364 -2.59862 -10.6032 -10.9059 -36.939 18.1141 1.74003 5.59636 -84.6551 -37.5315 85.0114 -16.1831 -17.1003 -22.8803 3.98045 46.5992 -5.05852 69.9463 -22.3752 -34.3912 -10.6406 13.4997 -4.47874 2.85886 14.9131 30.7693 
10.9853 104.497 -27.4589 -159.138 -76.4806 -138.721 -174.002 0.123388 110.575 -33.6271 0.914679 0.279504 34.3975 5.66696 4.35419 28.7808 3.98001e-006 3.31946e-006 175.811 43.0409 68.9642 -4.02093 8.33785 0.419 -5.3785 0.475689 4.45975 28.7808 1.61762e-005 1.91486e-005 -1.30666 8.00167 -91.6671 10.8094 -2.31478 -4.04244 -0.865466 -2.49032 -3.93684 -23.3547 -0.996425 -4.55018 -3.34206 -0.996444 -4.55023 93.742 -52.7659 -94.6267 17.0922 20.5826 3.46559 -9.42072 -8.66475 -38.3822 18.1852 2.14246 7.96432 -85.4517 -40.7034 84.1398 -12.8622 -18.2537 -12.7697 5.52021 60.9165 -6.60882 77.2183 -24.6127 -33.542 -9.00416 14.6858 -12.0034 -1.98686 15.396 34.792 
10.2423 103.063 -26.7639 -157.08 -78.3387 -137.807 -174.05 -1.24079 108.756 -31.8743 -3.891 -5.7922e-005 44.0055 8.35008 6.18587 28.7808 3.98001e-006 3.31946e-006 175.797 33.5156 75.4385 -3.986 -0.897685 -0.116118 -2.11647 1.84968 6.71302 28.7808 1.61762e-005 1.91486e-005 -0.849824 7.83706 -91.6631 11.1512 -2.05725 -3.30658 -0.522048 -2.20076 -3.21296 -23.0283 -0.973122 -3.77136 -3.01561 -0.973141 -3.7714 95.0973 -55.181 -92.2905 16.5726 20.9784 9.62749 -9.1744 -7.31839 -41.9845 17.5517 2.48498 10.5401 -83.2911 -40.1524 87.718 -20.5775 -15.0832 -8.50537 3.88633 45.2658 -4.96405 63.6375 -17.6482 -31.1196 -2.01975 15.0227 -20.5279 -9.17105 15.0747 38.7082 
8.89887 100.23 -25.4322 -162.697 -79.1771 -146.061 -174.628 -3.44939 106.212 -33.0324 -8.65211 -0.292666 56.9101 8.44234 5.17785 28.7808 3.98001e-006 3.31946e-006 179.189 33.8934 77.1411 -22.5946 2.57354 -0.00387407 -0.969408 7.38842 16.6023 28.7808 1.61762e-005 1.91486e-005 -0.676407 7.87545 -91.2467 11.0958 -1.63049 -2.80481 -0.576969 -1.75232 -2.7304 -23.0906 -0.71263 -3.16479 -3.07793 -0.712644 -3.16481 97.4133 -52.157 -89.1812 19.0048 19.7906 16.6575 -9.61432 -6.53164 -47.393 15.2554 2.63596 13.7305 -82.1508 -39.887 89.6363 -23.8882 -14.1112 -2.66856 4.04289 47.4311 -5.12227 60.7395 -21.0564 -37.9508 1.97605 14.2519 -18.8217 -10.3702 14.546 34.1348 
7.68873 96.8977 -24.1841 -163.783 -80.0323 -151.386 -175.929 -4.33857 102.221 -35.5306 -11.4269 -0.464165 68.1127 5.05826 2.68542 28.7808 3.98001e-006 3.31946e-006 -179.713 32.2927 79.2099 -33.2474 5.38803 0.0612782 6.75007 9.26959 17.1867 28.7808 1.61762e-005 1.91486e-005 -0.532409 7.82883 -90.6709 11.1962 -1.20257 -2.10837 -0.475961 -1.2942 -2.05344 -22.9983 -0.513534 -2.37218 -2.98565 -0.513544 -2.37219 98.7887 -48.3216 -87.3607 21.5789 18.4609 22.0663 -6.64263 -3.19809 -50.3211 8.58149 1.68883 15.9853 -80.1086 -40.9733 93.1939 -26.3339 -13.5963 1.1878 3.8662 44.9719 -4.94368 52.7114 -21.6582 -44.5385 3.70268 13.73 -15.1278 -8.93041 14.3508 29.8437 
6.55722 93.8737 -22.969 -154.518 -81.206 -145.779 -177.268 -3.68539 98.7251 -38.1332 -13.0133 -0.548592 76.4498 2.17968 1.22785 28.7808 3.98001e-006 3.31946e-006 -179.396 31.4932 82.052 -39.6019 8.41553 0.168441 11.4186 10.5987 17.6001 28.7808 1.61762e-005 1.91486e-005 -0.266378 7.67743 -90.2473 11.511 -0.562151 -1.51439 -0.160712 -0.628264 -1.4882 -22.6888 -0.0811029 -1.6133 -2.67617 -0.0810978 -1.61331 99.7053 -46.544 -85.9907 22.9073 17.7516 24.6049 -4.14959 -0.929285 -50.3762 -2.06531 -0.309759 16.9633 -76.6306 -42.6278 99.051 -26.3167 -13.7084 3.12514 3.98664 44.8462 -5.11792 47.7731 -22.773 -51.102 4.56537 13.0942 -13.2379 -7.54047 13.8938 28.55 
5.83285 92.0455 -21.1447 -134.809 -80.6491 -129.483 -178.513 -4.50659 94.1826 -38.4666 -18.3225 -0.904192 79.9759 -0.483746 0.210441 28.7808 3.98001e-006 3.31946e-006 -179.73 28.235 84.8083 -40.8166 12.5792 0.431609 26.6415 12.446 15.1062 28.7808 1.61762e-005 1.91486e-005 0.195184 7.46747 -90.1277 11.9432 0.285857 -1.10585 0.271789 0.236873 -1.11749 -22.2606 0.605141 -0.969324 -2.24791 0.605121 -0.969349 99.5255 -44.8121 -86.4029 23.3713 17.4764 25.6434 -5.90111 -2.72738 -47.893 -11.6008 -2.29223 18.1361 -73.8837 -47.8767 103.227 -22.1071 -14.8821 12.7992 21.041 42.8144 -29.1804 39.4248 -19.3914 -52.4015 3.26793 12.8553 -8.53683 -5.96347 13.2571 24.6923 
5.1456 91.2603 -18.9293 -114.881 -77.0193 -113.52 179.607 -5.79906 88.2011 -37.1611 -24.4222 -1.35612 79.0091 -4.42373 -1.40271 28.7808 3.98001e-006 3.31946e-006 179.883 24.6696 85.1296 -38.5711 14.8815 0.634859 53.4013 6.45609 4.7618 28.7808 1.61762e-005 1.91486e-005 0.621503 7.17628 -90.13 12.5302 1.22711 -0.75642 0.859554 1.19296 -0.807638 -21.6799 1.39533 -0.345345 -1.66723 1.39532 -0.345366 98.7249 -40.7756 -88.0545 25.0462 16.6099 25.5269 -5.41276 -2.46562 -44.9002 -21.5077 -4.52139 19.0146 -72.629 -48.6189 105.106 -24.3167 -14.1933 22.5587 32.1088 37.2366 -45.9115 32.772 -16.7558 -53.8648 -2.1446 13.4714 -1.32665 -2.37637 13.4116 21.0931 
4.17279 90.9934 -17.1169 -102.922 -71.037 -103.762 178.76 -3.97193 84.7461 -41.3311 -27.0219 -1.48728 74.1702 -9.35797 -3.99453 28.7808 3.98001e-006 3.31946e-006 179.53 23.7728 85.4751 -35.5599 10.6973 0.418999 62.5254 -1.62269 -0.89465 28.7808 1.61762e-005 1.91486e-005 1.01297 6.97457 -90.2954 12.9411 1.96483 -0.864279 1.2713 1.92488 -0.950094 -21.2753 2.13378 -0.229237 -1.26264 2.13373 -0.229277 97.6986 -36.0789 -90.3995 26.4424 15.9584 25.46 -7.33825 -4.54778 -45.1549 -24.2359 -4.88479 17.8375 -71.1248 -47.4863 107.549 -29.6015 -11.9671 28.215 35.6309 32.3952 -53.1547 29.6773 -15.918 -55.759 -5.19273 14.6647 6.28512 -0.679696 14.1602 18.467 
3.05183 91.1123 -15.8912 -98.2882 -64.6711 -99.352 179.521 2.06537 84.7641 -52.1598 -24.874 -1.03752 62.9824 -13.359 -7.80141 28.7808 3.98001e-006 3.31946e-006 179.241 22.0813 86.6538 -31.9951 3.43828 0.0360904 65.6218 -4.18422 -2.27413 28.7808 1.61762e-005 1.91486e-005 1.22186 6.94297 -90.8136 12.9903 2.32479 -1.28952 1.32066 2.26577 -1.39061 -21.2299 2.60479 -0.530839 -1.21731 2.60479 -0.530858 97.0569 -31.3669 -92.3248 27.8256 15.2686 25.1002 -10.7495 -7.77922 -47.0837 -25.3112 -4.45076 14.9238 -69.5575 -48.271 109.875 -32.9841 -9.91819 33.2764 34.6026 23.256 -59.9785 22.199 -12.5423 -57.3024 -5.23181 16.7127 14.0883 -0.464297 15.4548 16.5003 
1.7576 91.7828 -15.1793 -97.4745 -61.903 -98.6676 -179.729 9.69782 88.6002 -62.2613 -10.4374 0.204469 47.2475 -17.2023 -13.8736 28.7808 3.98001e-006 3.31946e-006 179.037 20.11 87.4752 -29.1756 1.09058 -0.0661381 65.2527 -4.37746 -2.36563 28.7808 1.61762e-005 1.91486e-005 0.884262 7.04325 -91.0491 12.7763 1.82762 -0.925403 1.10628 1.78512 -1.00496 -21.4384 2.02121 -0.333155 -1.42574 2.02119 -0.333174 96.7351 -32.1519 -92.8303 26.1099 15.9161 21.6125 -15.4875 -13.4595 -45.6659 -26.2181 -4.01985 12.3487 -70.0988 -44.9194 109.5 -37.4607 -6.61082 35.0517 32.9916 16.9247 -65.4747 16.6914 -11.0534 -63.4506 -0.202584 19.9611 11.8457 -5.33394 17.5746 20.4034 
0.62664 93.7145 -14.6162 -95.6252 -61.45 -98.0439 -179.82 17.6506 90.4653 -66.7647 -8.46445 0.456145 36.7896 -14.023 -14.2172 28.7808 3.98001e-006 3.31946e-006 178.348 17.1931 86.0172 -22.6615 -1.71674 -0.163052 58.8567 2.01884 1.60145 28.7808 1.61762e-005 1.91486e-005 0.581743 6.98382 -91.0259 12.8866 1.25537 -0.100636 1.21623 1.24969 -0.155813 -21.3237 1.22756 0.281369 -1.31103 1.22754 0.281339 97.3724 -33.6444 -91.3438 25.3913 16.2968 21.4463 -20.5596 -18.533 -47.0533 -24.1274 -4.18845 14.8246 -75.5999 -39.8778 100.825 -40.5914 -2.82694 37.4734 36.796 11.637 -74.9549 14.2548 -9.53963 -63.5394 2.15837 21.6245 7.03796 -8.25576 18.9619 25.2821 
